<svg width="23" height="23" viewBox="0 0 42 47" fill="none" xmlns="http://www.w3.org/2000/svg">
<path d="M21.1765 1.95825C11.0403 1.95825 2.82355 9.2573 2.82355 18.2614C2.82355 22.1184 4.73684 25.5102 6.85431 28.4508L19.9285 44.8599C20.2153 45.22 20.681 45.4333 21.1765 45.4333C21.672 45.4333 22.1377 45.22 22.4245 44.8599L35.4987 28.4508C37.5221 26.0312 39.5294 22.1184 39.5294 18.2614C39.5294 9.2573 31.3127 1.95825 21.1765 1.95825ZM33.4783 28.4508H33.4707L21.1765 43.3954L8.88231 28.4508H8.87467C7.00572 26.0522 4.35296 22.2006 4.35296 18.2614C4.35296 10.0079 11.8853 3.31685 21.1765 3.31685C30.4677 3.31685 38 10.0079 38 18.2614C38 22.2006 35.1561 26.2642 33.4783 28.4508Z" fill="#EFEFEF" stroke="#EFEFEF" stroke-width="3"/>
<path d="M21.1765 11.74C16.8324 11.74 13.311 14.7819 13.311 18.533C13.311 22.284 16.8324 25.3259 21.1765 25.3259C25.5207 25.3259 29.0421 22.284 29.0421 18.533C29.0421 14.7819 25.5207 11.74 21.1765 11.74ZM21.1765 23.9673C17.7015 23.9673 14.8841 21.5341 14.8841 18.533C14.8841 15.5318 17.7015 13.0986 21.1765 13.0986C24.6515 13.0986 27.469 15.5318 27.469 18.533C27.469 21.5341 24.6515 23.9673 21.1765 23.9673Z" fill="#EFEFEF" stroke="#EFEFEF" stroke-width="3"/>
<path d="M21.1765 9.02295C15.2235 9.02295 10.3978 13.2808 10.3978 18.5331C10.3978 23.7854 15.2235 28.0433 21.1765 28.0433C27.1294 28.0433 31.9552 23.7854 31.9552 18.5331C31.9552 13.2808 27.1294 9.02295 21.1765 9.02295ZM21.1765 26.6847C16.0743 26.6847 11.9376 23.0348 11.9376 18.5331C11.9376 14.0314 16.0743 10.3815 21.1765 10.3815C26.2787 10.3815 30.4154 14.0314 30.4154 18.5331C30.4154 23.0348 26.2787 26.6847 21.1765 26.6847Z" fill="#EFEFEF" stroke="#EFEFEF" stroke-width="3"/>
</svg>
